<svg id="Layer_1" data-name="Layer 1" xmlns="http://www.w3.org/2000/svg" viewBox="0 0 100 100"><defs><style>.cls-1{fill:#17adbb;stroke:#00adbb;stroke-miterlimit:10;stroke-width:3px;}</style></defs><path class="cls-1" d="M28.09,66.06H25.36a.7.7,0,0,1-.71-.7V52.3a.7.7,0,0,0-.7-.7H9.11a.7.7,0,0,0-.71.7V65.36a.7.7,0,0,1-.7.7H5a.7.7,0,0,1-.7-.7V34.66A.7.7,0,0,1,5,34H7.7a.7.7,0,0,1,.7.7V47.2a.71.71,0,0,0,.71.71H24a.7.7,0,0,0,.7-.71V34.66a.7.7,0,0,1,.71-.7h2.73a.7.7,0,0,1,.71.7v30.7A.7.7,0,0,1,28.09,66.06Z"/><path class="cls-1" d="M35,50.39Q35,42.62,39.22,38t11.4-4.6a13.86,13.86,0,0,1,10.78,4.5q4.08,4.48,4.08,11.71,0,7.82-4.18,12.39A14.43,14.43,0,0,1,50.1,66.6a14.15,14.15,0,0,1-11-4.5Q35,57.61,35,50.39Zm4.36-.33q0,5.84,3,9.34a9.68,9.68,0,0,0,7.76,3.51,10.15,10.15,0,0,0,8.08-3.37q2.93-3.36,2.93-9.42,0-6.21-2.87-9.59a9.79,9.79,0,0,0-7.87-3.38,10,10,0,0,0-8,3.56A13.91,13.91,0,0,0,39.37,50.06Z"/><path class="cls-1" d="M95.74,64.32a.68.68,0,0,1-.38.63,19.36,19.36,0,0,1-8.51,1.67q-6.9,0-11-4.38T71.7,50.64c0-5.17,1.55-9.32,4.64-12.48a15.85,15.85,0,0,1,11.8-4.72,19.91,19.91,0,0,1,7.17,1.12.71.71,0,0,1,.43.66v2.71a.7.7,0,0,1-1,.64,15.51,15.51,0,0,0-6.56-1.4,11.47,11.47,0,0,0-8.75,3.58q-3.37,3.57-3.38,9.64,0,5.78,3.15,9.15a10.74,10.74,0,0,0,8.25,3.39,16,16,0,0,0,7.26-1.58.7.7,0,0,1,1,.62Z"/></svg>