<svg id="Capa_1" enable-background="new 0 0 512 512" height="512" viewBox="0 0 512 512" width="512" xmlns="http://www.w3.org/2000/svg"><g><g><path d="m370.846 418.666c-6.262 4.948-12.798 9.396-19.566 13.339 9.776-20.99 19.577-47.669 25.711-79.009 19.361-4.172 35.776-8.914 48.815-13.252-1.518 4.682-3.238 9.311-5.183 13.872-2.167 5.08.195 10.954 5.275 13.121 5.078 2.166 10.954-.195 13.121-5.275 14.506-34.01 19.257-73.793 11.026-110.062-12.922-62.964-57.854-114.389-116.974-136.479-7.927-3.779-17.376-5.766-25.921-7.587v-8.364c0-17.948-12.246-33.083-28.819-37.507v-51.463c0-5.522-4.478-10-10-10s-10 4.478-10 10v51.463c-16.569 4.423-28.811 19.559-28.811 37.506v8.361c-8.543 1.819-18.064 3.784-25.969 7.605-59.088 22.094-103.996 73.493-116.925 136.425-5.464 23.772-5.459 50.982-.001 74.766 13.472 65.581 62.954 119.592 126.617 139.884 17.743 5.655 36.488 8.227 55.09 8.227 42.161 0 81.898-13.79 114.915-39.881 4.333-3.424 5.07-9.713 1.646-14.046-3.426-4.331-9.712-5.071-14.047-1.644zm-115.5 35.065c-14.117-1.101-27.74-3.984-40.65-8.419-11.352-20.054-25.301-50.203-33.744-88.22 25.422 4.336 51.352 6.772 77.379 7.269v89.566c-.995-.059-1.991-.12-2.985-.196zm-151.64-147.999c-1.516-14.914-1.028-30.019 1.484-44.798 12.228-4.541 29.473-10.146 51.008-15.161-1.857 14.277-2.798 28.675-2.798 42.974s.941 28.698 2.798 42.974c-21.532-5.014-38.777-10.619-51.009-15.162-.607-3.573-1.109-7.181-1.483-10.827zm73.304 30.347c-2.396-15.686-3.61-31.576-3.61-47.333 0-15.756 1.213-31.646 3.61-47.333 26.638-4.961 53.919-7.735 81.321-8.279v111.224c-27.401-.544-54.683-3.318-81.321-8.279zm182.64-94.665c2.396 15.684 3.61 31.574 3.61 47.333 0 15.757-1.213 31.647-3.61 47.333-26.64 4.962-53.919 7.735-81.318 8.28v-111.225c27.402.544 54.683 3.318 81.318 8.279zm-81.319 122.947c26.026-.497 51.954-2.933 77.376-7.27-8.452 38.06-22.415 68.223-33.767 88.269-14.064 4.82-28.681 7.691-43.609 8.577zm0-151.229v-89.563c14.848.875 29.57 3.781 43.637 8.614 11.347 20.045 25.294 50.189 33.739 88.217-25.418-4.335-51.347-6.771-77.376-7.268zm-35.977-87.831c5.294-.834 10.628-1.413 15.978-1.731v89.563c-26.028.497-51.958 2.933-77.379 7.269 8.443-38.017 22.392-68.164 33.744-88.218 8.902-3.06 18.146-5.377 27.657-6.883zm138.108 206.419c1.857-14.276 2.798-28.675 2.798-42.974s-.941-28.698-2.798-42.974c21.533 5.015 38.78 10.621 51.011 15.163 3.119 18.358 3.125 37.253.022 55.614-12.233 4.545-29.489 10.154-51.033 15.171zm45.305-93.983c-13.031-4.335-29.433-9.071-48.776-13.24-6.12-31.27-15.892-57.898-25.646-78.865 34.909 20.326 61.739 53.054 74.422 92.105zm-157.465-157.585c.01 0 .019.001.029.001.009 0 .018-.001.028-.001 10.189.017 18.791 8.626 18.791 18.818v5.235c-12.5-1.258-25.13-1.258-37.63-.001v-5.234c.001-10.368 8.423-18.803 18.782-18.818zm-82.985 65.478c-9.757 20.973-19.531 47.603-25.649 78.866-19.344 4.169-35.743 8.905-48.772 13.238 12.684-39.049 39.513-71.777 74.421-92.104zm-74.421 194.127c13.031 4.334 29.432 9.07 48.773 13.239 6.119 31.264 15.893 57.896 25.65 78.868-34.91-20.326-61.74-53.055-74.423-92.107z"/><path d="m472.668 469.471h-12.528v-12.528c0-5.522-4.478-10-10-10s-10 4.478-10 10v12.528h-12.529c-5.522 0-10 4.478-10 10s4.478 10 10 10h12.529v12.529c0 5.522 4.478 10 10 10s10-4.478 10-10v-12.529h12.528c5.522 0 10-4.478 10-10s-4.477-10-10-10z"/><path d="m68.905 124.463h12.529v12.529c0 5.522 4.477 10 10 10s10-4.478 10-10v-12.529h12.529c5.523 0 10-4.478 10-10s-4.477-10-10-10h-12.529v-12.528c0-5.522-4.477-10-10-10s-10 4.478-10 10v12.528h-12.529c-5.523 0-10 4.478-10 10s4.477 10 10 10z"/><path d="m431.982 124.464c18.199 0 33.005-14.806 33.005-33.005s-14.806-33.006-33.005-33.006-33.006 14.807-33.006 33.006 14.806 33.005 33.006 33.005zm0-46.011c7.171 0 13.005 5.834 13.005 13.006 0 7.171-5.834 13.005-13.005 13.005-7.172 0-13.006-5.834-13.006-13.005 0-7.172 5.834-13.006 13.006-13.006z"/><path d="m62.337 387.014c-18.199 0-33.005 14.806-33.005 33.005s14.806 33.006 33.005 33.006 33.005-14.807 33.005-33.006-14.806-33.005-33.005-33.005zm0 46.01c-7.171 0-13.005-5.834-13.005-13.006 0-7.171 5.834-13.005 13.005-13.005s13.005 5.834 13.005 13.005c.001 7.172-5.833 13.006-13.005 13.006z"/><path d="m418.24 394.68c0-5.44-4.553-9.995-9.995-9.995-5.441 0-10.003 4.548-10.005 9.995-.001 5.448 4.559 10 10 10 5.449 0 10-4.551 10-10z"/></g></g></svg>