<svg id="Layer_1" enable-background="new 0 0 512.337 512.337" height="512" viewBox="0 0 512.337 512.337" width="512" xmlns="http://www.w3.org/2000/svg"><path d="m271.663 281.499-37.345 37.346-40.826-40.826 37.345-37.346 4.48-22.947-17.858-17.857-22.947 4.48-37.345 37.345-13.27-13.27-27.914 27.913 10.607 10.606 17.307-17.307 118.803 118.805-71.978 71.977-54.48-2.487-61.836-61.831-2.487-54.486 44.071-44.07-10.607-10.606-48.749 48.75 2.952 64.702-40.438 40.439 30.877 30.877-50.025 50.024 10.607 10.606 50.024-50.024 30.863 30.863 40.426-40.426 64.73 2.954 87.263-87.263-13.271-13.271 37.345-37.346 4.48-22.947-17.858-17.857zm-69.782-63.305 10.617-2.073 6.567 6.567-2.072 10.617-34.108 34.107-15.112-15.112zm-161.521 202.634 9.087-9.087 51.134 51.135-9.087 9.087zm70.828 31.441-51.134-51.135 9.087-9.087 51.135 51.134zm182.956-141.813-34.108 34.107-15.112-15.112 34.108-34.108 10.616-2.072 6.567 6.567z"/><path d="m461.708 61.236 50.629-50.629-10.608-10.606-50.628 50.628-30.863-30.863-40.426 40.426-64.73-2.954-87.263 87.262 140.016 140.016 33.254-33.241-10.605-10.608-22.646 22.639-118.806-118.806 71.978-71.977 54.48 2.487 61.837 61.837 2.486 54.479-38.731 38.73 10.607 10.606 43.409-43.41-2.952-64.701 40.439-40.439zm9.664 30.877-9.087 9.087-51.134-51.135 9.087-9.087zm-70.828-31.441 51.134 51.135-9.087 9.087-51.134-51.134z"/><path d="m186.469 429.434-42.659-1.942.682-14.984 36.05 1.642 8.583-8.583 10.607 10.606zm23.868-23.869-10.605-10.606 10.607-10.607 10.605 10.606zm21.215-21.213-10.607-10.606 10.606-10.606 10.607 10.606z"/></svg>