<svg id="Layer_1" data-name="Layer 1" xmlns="http://www.w3.org/2000/svg" viewBox="0 0 688 1000.15"><defs><style>.cls-1{fill:#ed1c2466;}</style></defs><path class="cls-1" d="M360,807.08H313a60,60,0,0,0-60,60v65a60,60,0,0,0,60,60h47a60,60,0,0,0,60-60v-65A60,60,0,0,0,360,807.08Z"/><path class="cls-1" d="M28.13,304.88l86.7,10.8a60,60,0,0,0,63.5-38.3q18.75-49,52.2-77.3,47.4-39.9,117.9-40,73.05,0,116.3,38.3c28.8,25.6,43.1,56.2,43.1,92.1q0,38.7-24.3,70.8-15.75,20.4-96.7,85.9t-107.9,118.1c-18.4,35.8-24.8,75.5-26.4,115.3a60,60,0,0,0,60,62.5h49a60.13,60.13,0,0,0,59.8-54.9c2-22.3,5.7-39.2,11.3-50.7q14.1-29.55,72.7-78.1,113.25-93.75,147.8-148.3t34.6-115.5q0-110.25-94-193.4t-253-83.1q-151.2,0-244.1,82Q17.43,171,.43,266.58A32.33,32.33,0,0,0,28.13,304.88Z"/></svg>