<?xml version="1.0" encoding="iso-8859-1"?>
<!-- Generator: Adobe Illustrator 19.0.0, SVG Export Plug-In . SVG Version: 6.00 Build 0)  -->
<svg version="1.1" id="Capa_1" xmlns="http://www.w3.org/2000/svg" xmlns:xlink="http://www.w3.org/1999/xlink" x="0px" y="0px"
	 viewBox="0 0 368 368" style="enable-background:new 0 0 368 368;" xml:space="preserve">
<g>
	<g>
		<g>
			<path d="M184,224c-29.824,0-58.232,12.632-77.96,34.664c-2.944,3.296-2.664,8.344,0.624,11.296c1.52,1.368,3.432,2.04,5.336,2.04
				c2.192,0,4.384-0.896,5.96-2.664C134.656,250.688,158.728,240,184,240c25.28,0,49.352,10.688,66.04,29.336
				c2.944,3.296,8.008,3.568,11.296,0.624c3.288-2.944,3.568-8,0.624-11.296C242.24,236.64,213.832,224,184,224z"/>
			<path d="M184,0C82.536,0,0,82.544,0,184s82.536,184,184,184s184-82.544,184-184S285.464,0,184,0z M184,352
				c-92.632,0-168-75.36-168-168S91.368,16,184,16s168,75.36,168,168S276.632,352,184,352z"/>
			<path d="M280,128c-4.424,0-8,3.584-8,8c0,13.232-10.768,24-24,24s-24-10.768-24-24c0-4.416-3.576-8-8-8s-8,3.584-8,8
				c0,22.056,17.944,40,40,40c22.056,0,40-17.944,40-40C288,131.584,284.424,128,280,128z"/>
			<path d="M160,136c0-4.416-3.576-8-8-8s-8,3.584-8,8c0,13.232-10.768,24-24,24s-24-10.768-24-24c0-4.416-3.576-8-8-8s-8,3.584-8,8
				c0,22.056,17.944,40,40,40C142.056,176,160,158.056,160,136z"/>
		</g>
	</g>
</g>
<g>
</g>
<g>
</g>
<g>
</g>
<g>
</g>
<g>
</g>
<g>
</g>
<g>
</g>
<g>
</g>
<g>
</g>
<g>
</g>
<g>
</g>
<g>
</g>
<g>
</g>
<g>
</g>
<g>
</g>
</svg>
