<svg id="plug" xmlns="http://www.w3.org/2000/svg" width="612.972" height="612.969" viewBox="0 0 612.972 612.969">
  <path id="Path_55" data-name="Path 55" d="M48.819,297.533,93.5,342.215l48.845-48.845-44.68-44.682L92.3,221.234l21.366-21.364,27.454,5.36,44.68,44.68,15.877-15.876,33.4,33.4-12.69,12.689-20.706-20.707L59.542,401.552l86.116,86.115,65.181-2.976,73.982-73.976,2.975-65.188L235.069,292.8l12.69-12.689,58.324,58.326-3.532,77.411,48.381,48.382-36.942,36.942,59.851,59.85-12.69,12.689-59.85-59.85-36.925,36.925L216.01,502.42l-77.444,3.534-104.4-104.4L50.04,385.674,5.36,340.992,0,313.537l21.366-21.365Zm83.489-75.74-12.7-2.48-7.857,7.857,2.479,12.7,40.808,40.806,18.08-18.08ZM325.555,464.229l-10.872-10.872-61.178,61.179,10.872,10.872Zm-84.74,37.617,61.178-61.179L291.121,429.8l-61.179,61.178ZM21.922,332.178,62.73,372.984,80.81,354.9,40,314.1l-12.7-2.479-7.857,7.857Z" transform="translate(239.129 39.257)" fill="#546a88"/>
  <path id="Path_56" data-name="Path 56" d="M288.393,73.264,227.819,12.69,240.511,0l60.572,60.572,36.925-36.925,48.367,48.367,77.444-3.534,104.4,104.4L400.7,340.4l-39.786-39.77,12.688-12.692L400.7,315.025,542.843,172.883,456.727,86.768l-65.181,2.976-73.983,73.983-2.974,65.18,46.339,46.337-12.69,12.689L296.3,236l3.532-77.41L251.451,110.2Zm-11.562,36.942L287.7,121.078,348.88,59.9,338.008,49.027Zm84.74-37.617-61.178,61.179,10.872,10.872,61.178-61.178Z" transform="translate(-227.819 -0.001)" fill="#546a88"/>
  <path id="Path_57" data-name="Path 57" d="M210.438,442.456l51.038-2.323-.816-17.927-43.131,1.964L207.26,413.9l-12.69,12.689ZM181.881,413.9l12.688-12.689-12.69-12.69-12.688,12.689ZM156.5,388.518l12.69-12.689L156.5,363.14l-12.69,12.689Z" transform="translate(179.438 71.328)" fill="#546a88"/>
</svg>
