<svg id="sad" xmlns="http://www.w3.org/2000/svg" width="368" height="368" viewBox="0 0 368 368">
  <g id="Group_25" data-name="Group 25">
    <g id="Group_24" data-name="Group 24">
      <path id="Path_58" data-name="Path 58" d="M184,224a104.671,104.671,0,0,0-77.96,34.664,8,8,0,1,0,11.92,10.672,89,89,0,0,1,132.08,0,8,8,0,0,0,11.92-10.672A104.674,104.674,0,0,0,184,224Z" fill="#546a88"/>
      <path id="Path_59" data-name="Path 59" d="M184,0C82.536,0,0,82.544,0,184S82.536,368,184,368s184-82.544,184-184S285.464,0,184,0Zm0,352C91.368,352,16,276.64,16,184S91.368,16,184,16,352,91.36,352,184,276.632,352,184,352Z" fill="#546a88"/>
      <path id="Path_60" data-name="Path 60" d="M280,128a8,8,0,0,0-8,8,24,24,0,0,1-48,0,8,8,0,0,0-16,0,40,40,0,0,0,80,0A8,8,0,0,0,280,128Z" fill="#546a88"/>
      <path id="Path_61" data-name="Path 61" d="M160,136a8,8,0,0,0-16,0,24,24,0,0,1-48,0,8,8,0,0,0-16,0,40,40,0,0,0,80,0Z" fill="#546a88"/>
    </g>
  </g>
</svg>
