<svg xmlns="http://www.w3.org/2000/svg" xmlns:xlink="http://www.w3.org/1999/xlink" width="368" height="1347.358" viewBox="0 0 368 1347.358">
  <defs>
    <clipPath id="clip-path">
      <rect id="Rectangle_90" data-name="Rectangle 90" width="368" height="1347" transform="translate(260 209)" fill="#00428b" stroke="#707070" stroke-width="1"/>
    </clipPath>
    <clipPath id="clip-path-2">
      <rect id="Rectangle_91" data-name="Rectangle 91" width="186" height="124" fill="#302d7b" stroke="#707070" stroke-width="1"/>
    </clipPath>
    <clipPath id="clip-path-3">
      <rect id="Rectangle_93" data-name="Rectangle 93" width="177" height="260" transform="translate(260 363)" fill="#fff" stroke="#707070" stroke-width="1"/>
    </clipPath>
  </defs>
  <g id="Mask_Group_18" data-name="Mask Group 18" transform="translate(-260 -208.642)" clip-path="url(#clip-path)">
    <path id="Path_48" data-name="Path 48" d="M7209.66,209s-126.082,129.017,0,260.445,0,280.928,0,280.928-154.011,113.357,0,280.928,0,295.713,0,295.713-172.083,133.892,0,230-353.914,45.273-353.914,45.273V167.119Z" transform="translate(-6650)" fill="#00428b"/>
  </g>
  <path id="Subtraction_2" data-name="Subtraction 2" d="M-4376.5,147a73.037,73.037,0,0,1-28.609-5.776,73.252,73.252,0,0,1-23.363-15.752,73.256,73.256,0,0,1-15.752-23.363A73.043,73.043,0,0,1-4450,73.5a73.045,73.045,0,0,1,5.776-28.61,73.255,73.255,0,0,1,15.752-23.363,73.251,73.251,0,0,1,23.363-15.752A73.039,73.039,0,0,1-4376.5,0a73.764,73.764,0,0,1,18.349,2.309A73.116,73.116,0,0,1-4341.5,8.852,73.5,73.5,0,0,0-4380,73.5a73.5,73.5,0,0,0,38.5,64.647,73.121,73.121,0,0,1-16.651,6.543A73.761,73.761,0,0,1-4376.5,147Z" transform="matrix(0.809, -0.588, 0.588, 0.809, 3732.943, -1691.361)" fill="#302d7b"/>
  <text id="C" transform="translate(153.75 171.215) rotate(21)" fill="#0087c2" font-size="139" font-family="SegoeUI, Segoe UI"><tspan x="-86.061" y="0">C</tspan></text>
  <text id="L" transform="translate(295.113 428.033) rotate(-15)" fill="#0087c2" font-size="139" font-family="SegoeUI, Segoe UI"><tspan x="-65.428" y="0">L</tspan></text>
  <text id="U" transform="translate(145.789 844.354) rotate(21)" fill="#0087c2" font-size="139" font-family="SegoeUI, Segoe UI"><tspan x="-95.495" y="0">U</tspan></text>
  <text id="B" transform="matrix(0.961, -0.276, 0.276, 0.961, 191.077, 1267.369)" fill="#0087c2" font-size="139" font-family="SegoeUI, Segoe UI"><tspan x="-79.681" y="0">B</tspan></text>
  <g id="disco-ball" transform="translate(37.302 536.395)">
    <g id="Group_21" data-name="Group 21" transform="translate(29.332 0)">
      <path id="Path_49" data-name="Path 49" d="M154.307,104.228a41.77,41.77,0,0,1-4.871,3.321,85.723,85.723,0,0,0,6.4-19.669,116.024,116.024,0,0,0,12.153-3.3q-.567,1.748-1.29,3.453a2.489,2.489,0,0,0,4.58,1.953,45.5,45.5,0,0,0,2.745-27.4A46.35,46.35,0,0,0,144.9,28.61a29.584,29.584,0,0,0-6.453-1.889V24.639a9.681,9.681,0,0,0-7.175-9.337V2.489a2.49,2.49,0,0,0-4.979,0V15.3a9.68,9.68,0,0,0-7.173,9.337V26.72a29.024,29.024,0,0,0-6.465,1.893A46.349,46.349,0,0,0,83.55,62.576a42.982,42.982,0,0,0,0,18.613,46.854,46.854,0,0,0,31.521,34.824,46.41,46.41,0,0,0,42.323-7.88,2.489,2.489,0,1,0-3.087-3.906Zm-28.754,8.729a40.909,40.909,0,0,1-10.12-2.1,80.223,80.223,0,0,1-8.4-21.963,129.411,129.411,0,0,0,19.264,1.81v22.3C126.048,112.991,125.8,112.976,125.553,112.957ZM87.8,76.112a41.555,41.555,0,0,1,.369-11.153,105.306,105.306,0,0,1,12.7-3.774,82.506,82.506,0,0,0,0,21.4,105.266,105.266,0,0,1-12.7-3.775c-.151-.89-.276-1.788-.369-2.7Zm18.249,7.555a77.7,77.7,0,0,1,0-23.567A124.2,124.2,0,0,1,126.3,58.039V85.728a124.207,124.207,0,0,1-20.245-2.061ZM151.519,60.1a77.7,77.7,0,0,1,0,23.567,124.209,124.209,0,0,1-20.244,2.061V58.039A124.186,124.186,0,0,1,151.519,60.1ZM131.275,90.708a129.372,129.372,0,0,0,19.263-1.81,80.217,80.217,0,0,1-8.406,21.975,40.9,40.9,0,0,1-10.857,2.135Zm0-37.649v-22.3a40.883,40.883,0,0,1,10.863,2.144,80.212,80.212,0,0,1,8.4,21.962A129.414,129.414,0,0,0,131.275,53.06Zm-8.957-21.866q1.977-.311,3.978-.431v22.3a129.4,129.4,0,0,0-19.264,1.81,80.219,80.219,0,0,1,8.4-21.962A40.8,40.8,0,0,1,122.318,31.194ZM156.7,82.582a82.506,82.506,0,0,0,0-21.4,105.335,105.335,0,0,1,12.7,3.775,41.541,41.541,0,0,1,.005,13.845,105.244,105.244,0,0,1-12.7,3.777Zm11.279-23.4a116.016,116.016,0,0,0-12.143-3.3,85.709,85.709,0,0,0-6.385-19.634A41.4,41.4,0,0,1,167.979,59.185Zm-39.2-39.231h.014a4.748,4.748,0,0,1,4.678,4.685v1.3a46.84,46.84,0,0,0-9.368,0v-1.3A4.689,4.689,0,0,1,128.778,19.954Zm-20.659,16.3a85.7,85.7,0,0,0-6.385,19.634,116.074,116.074,0,0,0-12.142,3.3,41.406,41.406,0,0,1,18.527-22.929ZM89.592,84.583a116.1,116.1,0,0,0,12.142,3.3,85.71,85.71,0,0,0,6.386,19.634A41.4,41.4,0,0,1,89.592,84.583Z" transform="translate(-69.286 0)" fill="#302d7b"/>
      <path id="Path_50" data-name="Path 50" d="M431.318,452.551H428.2v-3.119a2.49,2.49,0,1,0-4.979,0v3.119H420.1a2.49,2.49,0,0,0,0,4.979h3.119v3.119a2.49,2.49,0,0,0,4.979,0V457.53h3.119a2.49,2.49,0,1,0,0-4.979Z" transform="translate(-320.948 -335.676)" fill="#302d7b"/>
      <path id="Path_51" data-name="Path 51" d="M61.395,92.522h3.119v3.119a2.49,2.49,0,0,0,4.979,0V92.522h3.119a2.49,2.49,0,1,0,0-4.979H69.493V84.425a2.49,2.49,0,0,0-4.979,0v3.119H61.395a2.49,2.49,0,1,0,0,4.979Z" transform="translate(-51.543 -61.537)" fill="#302d7b"/>
      <path id="Path_52" data-name="Path 52" d="M407.193,74.887a8.217,8.217,0,1,0-8.217-8.217A8.226,8.226,0,0,0,407.193,74.887Zm0-11.455a3.238,3.238,0,1,1-3.238,3.238A3.241,3.241,0,0,1,407.193,63.432Z" transform="translate(-306.953 -43.901)" fill="#302d7b"/>
      <path id="Path_53" data-name="Path 53" d="M37.549,387.014a8.217,8.217,0,1,0,8.217,8.217A8.226,8.226,0,0,0,37.549,387.014Zm0,11.454a3.238,3.238,0,1,1,3.238-3.238A3.241,3.241,0,0,1,37.549,398.468Z" transform="translate(-29.332 -290.666)" fill="#302d7b"/>
      <path id="Path_54" data-name="Path 54" d="M403.219,387.173a2.49,2.49,0,1,0-2.49,2.49A2.514,2.514,0,0,0,403.219,387.173Z" transform="translate(-306.4 -288.917)" fill="#302d7b"/>
    </g>
  </g>
  <g id="Mask_Group_19" data-name="Mask Group 19" transform="translate(124 980.358) rotate(90)" clip-path="url(#clip-path-2)">
    <circle id="Ellipse_29" data-name="Ellipse 29" cx="80" cy="80" r="80" transform="translate(0 20)" fill="#302d7b"/>
  </g>
  <g id="Mask_Group_20" data-name="Mask Group 20" transform="translate(-260 -208.642)" clip-path="url(#clip-path-3)">
    <g id="Group_22" data-name="Group 22" transform="translate(-23.295 656.838) rotate(40)">
      <path id="Union_11" data-name="Union 11" d="M0,298.987V59.5H.2Q0,57.161,0,54.768a54.966,54.966,0,0,1,109.931,0q0,2.39-.2,4.73h.2V298.987Z" transform="translate(283.624 -398.101) rotate(90)" fill="#302d7b"/>
    </g>
  </g>
  <rect id="Rectangle_94" data-name="Rectangle 94" width="33" height="26" transform="matrix(0.695, 0.719, -0.719, 0.695, 161.076, 432.522)" fill="#302d7b"/>
</svg>
